<svg width="1920" height="980" viewBox="0 0 1920 980" fill="none" xmlns="http://www.w3.org/2000/svg">
<g clip-path="url(#clip0_873_8890)">
<rect width="1920" height="980" fill="white"/>
<rect width="1920" height="980" fill="#112233"/>
<g filter="url(#filter0_f_873_8890)">
<circle cx="960" cy="1093" r="408" fill="url(#paint0_linear_873_8890)"/>
</g>
<g style="mix-blend-mode:multiply" opacity="0.7">
<path d="M609.197 562.153H524.473V899.018H609.197V562.153Z" fill="#D4DFE9"/>
<path d="M595.353 538.003H538.317V679.564H595.353V538.003Z" fill="#D4DFE9"/>
<path d="M582.655 522.683H551.017V601.205H582.655V522.683Z" fill="#D4DFE9"/>
<path d="M577.615 563.033H556.054V509.521H563.833H571.54H577.615V563.033Z" fill="#D4DFE9"/>
<path d="M565.414 539.729H563.076V486.218H563.921H564.756H565.414V539.729Z" fill="#D4DFE9"/>
<path d="M570.594 521.232H568.256V467.72H569.099H569.936H570.594V521.232Z" fill="#D4DFE9"/>
<path d="M611.455 561.29H522.212V564.876H611.455V561.29Z" fill="#D4DFE9"/>
<path d="M597.436 536.277H536.236V539.731H597.436V536.277Z" fill="#D4DFE9"/>
<path d="M583.978 521.231H548.71V523.881H583.978V521.231Z" fill="#D4DFE9"/>
<path opacity="0.29" d="M546.212 543.747H543.562V558.581H546.212V543.747Z" fill="#D4DFE9"/>
<path opacity="0.29" d="M553.551 543.747H550.898V558.581H553.551V543.747Z" fill="#D4DFE9"/>
<path opacity="0.29" d="M560.888 543.747H558.235V558.581H560.888V543.747Z" fill="#D4DFE9"/>
<path opacity="0.29" d="M568.224 543.747H565.571V558.581H568.224V543.747Z" fill="#D4DFE9"/>
<path opacity="0.29" d="M575.56 543.747H572.907V558.581H575.56V543.747Z" fill="#D4DFE9"/>
<path opacity="0.29" d="M582.898 543.747H580.245V558.581H582.898V543.747Z" fill="#D4DFE9"/>
<path opacity="0.29" d="M590.234 543.747H587.581V558.581H590.234V543.747Z" fill="#D4DFE9"/>
<path d="M538.317 575.585H531.91V593.184H538.317V575.585Z" fill="#D4DFE9"/>
<path opacity="0.29" d="M551.004 575.585H544.598V593.184H551.004V575.585Z" fill="#D4DFE9"/>
<path d="M563.694 575.585H557.288V593.184H563.694V575.585Z" fill="#D4DFE9"/>
<path d="M576.382 575.585H569.976V593.184H576.382V575.585Z" fill="#D4DFE9"/>
<path d="M589.072 575.585H582.665V593.184H589.072V575.585Z" fill="#D4DFE9"/>
<path d="M601.76 575.585H595.353V593.184H601.76V575.585Z" fill="#D4DFE9"/>
<path d="M538.317 603.015H531.91V620.614H538.317V603.015Z" fill="#D4DFE9"/>
<path d="M551.004 603.015H544.598V620.614H551.004V603.015Z" fill="#D4DFE9"/>
<path d="M563.694 603.015H557.288V620.614H563.694V603.015Z" fill="#D4DFE9"/>
<path opacity="0.29" d="M576.382 603.015H569.976V620.614H576.382V603.015Z" fill="#D4DFE9"/>
<path d="M589.072 603.015H582.665V620.614H589.072V603.015Z" fill="#D4DFE9"/>
<path d="M601.76 603.015H595.353V620.614H601.76V603.015Z" fill="#D4DFE9"/>
<path d="M538.317 630.448H531.91V648.047H538.317V630.448Z" fill="#D4DFE9"/>
<path d="M551.004 630.448H544.598V648.047H551.004V630.448Z" fill="#D4DFE9"/>
<path d="M563.694 630.448H557.288V648.047H563.694V630.448Z" fill="#D4DFE9"/>
<path d="M576.382 630.448H569.976V648.047H576.382V630.448Z" fill="#D4DFE9"/>
<path opacity="0.29" d="M589.072 630.448H582.665V648.047H589.072V630.448Z" fill="#D4DFE9"/>
<path opacity="0.29" d="M601.76 630.448H595.353V648.047H601.76V630.448Z" fill="#D4DFE9"/>
<path opacity="0.29" d="M538.317 657.878H531.91V675.477H538.317V657.878Z" fill="#D4DFE9"/>
<path d="M551.004 657.878H544.598V675.477H551.004V657.878Z" fill="#D4DFE9"/>
<path d="M563.694 657.878H557.288V675.477H563.694V657.878Z" fill="#D4DFE9"/>
<path d="M576.382 657.878H569.976V675.477H576.382V657.878Z" fill="#D4DFE9"/>
<path d="M589.072 657.878H582.665V675.477H589.072V657.878Z" fill="#D4DFE9"/>
<path d="M601.76 657.878H595.353V675.477H601.76V657.878Z" fill="#D4DFE9"/>
<path d="M538.317 685.31H531.91V702.909H538.317V685.31Z" fill="#D4DFE9"/>
<path opacity="0.29" d="M551.004 685.31H544.598V702.909H551.004V685.31Z" fill="#D4DFE9"/>
<path d="M563.694 685.31H557.288V702.909H563.694V685.31Z" fill="#D4DFE9"/>
<path opacity="0.29" d="M576.382 685.31H569.976V702.909H576.382V685.31Z" fill="#D4DFE9"/>
<path d="M589.072 685.31H582.665V702.909H589.072V685.31Z" fill="#D4DFE9"/>
<path d="M601.76 685.31H595.353V702.909H601.76V685.31Z" fill="#D4DFE9"/>
<path d="M538.317 712.742H531.91V730.341H538.317V712.742Z" fill="#D4DFE9"/>
<path d="M551.004 712.742H544.598V730.341H551.004V712.742Z" fill="#D4DFE9"/>
<path d="M563.694 712.742H557.288V730.341H563.694V712.742Z" fill="#D4DFE9"/>
<path d="M576.382 712.742H569.976V730.341H576.382V712.742Z" fill="#D4DFE9"/>
<path d="M589.072 712.742H582.665V730.341H589.072V712.742Z" fill="#D4DFE9"/>
<path opacity="0.29" d="M601.76 712.742H595.353V730.341H601.76V712.742Z" fill="#D4DFE9"/>
<path d="M538.317 740.172H531.91V757.771H538.317V740.172Z" fill="#D4DFE9"/>
<path opacity="0.29" d="M551.004 740.172H544.598V757.771H551.004V740.172Z" fill="#D4DFE9"/>
<path opacity="0.29" d="M563.694 740.172H557.288V757.771H563.694V740.172Z" fill="#D4DFE9"/>
<path d="M576.382 740.172H569.976V757.771H576.382V740.172Z" fill="#D4DFE9"/>
<path d="M589.072 740.172H582.665V757.771H589.072V740.172Z" fill="#D4DFE9"/>
<path d="M601.76 740.172H595.353V757.771H601.76V740.172Z" fill="#D4DFE9"/>
<path d="M538.317 767.604H531.91V785.203H538.317V767.604Z" fill="#D4DFE9"/>
<path d="M551.004 767.604H544.598V785.203H551.004V767.604Z" fill="#D4DFE9"/>
<path d="M563.694 767.604H557.288V785.203H563.694V767.604Z" fill="#D4DFE9"/>
<path d="M576.382 767.604H569.976V785.203H576.382V767.604Z" fill="#D4DFE9"/>
<path opacity="0.29" d="M589.072 767.604H582.665V785.203H589.072V767.604Z" fill="#D4DFE9"/>
<path d="M601.76 767.604H595.353V785.203H601.76V767.604Z" fill="#D4DFE9"/>
<path d="M538.317 795.035H531.91V812.634H538.317V795.035Z" fill="#D4DFE9"/>
<path opacity="0.29" d="M551.004 795.035H544.598V812.634H551.004V795.035Z" fill="#D4DFE9"/>
<path d="M563.694 795.035H557.288V812.634H563.694V795.035Z" fill="#D4DFE9"/>
<path d="M576.382 795.035H569.976V812.634H576.382V795.035Z" fill="#D4DFE9"/>
<path d="M589.072 795.035H582.665V812.634H589.072V795.035Z" fill="#D4DFE9"/>
<path d="M601.76 795.035H595.353V812.634H601.76V795.035Z" fill="#D4DFE9"/>
<path d="M538.317 822.467H531.91V840.066H538.317V822.467Z" fill="#D4DFE9"/>
<path d="M551.004 822.467H544.598V840.066H551.004V822.467Z" fill="#D4DFE9"/>
<path d="M563.694 822.467H557.288V840.066H563.694V822.467Z" fill="#D4DFE9"/>
<path opacity="0.29" d="M576.382 822.467H569.976V840.066H576.382V822.467Z" fill="#D4DFE9"/>
<path d="M589.072 822.467H582.665V840.066H589.072V822.467Z" fill="#D4DFE9"/>
<path opacity="0.29" d="M601.76 822.467H595.353V840.066H601.76V822.467Z" fill="#D4DFE9"/>
<path opacity="0.29" d="M538.317 849.897H531.91V867.496H538.317V849.897Z" fill="#D4DFE9"/>
<path d="M551.004 849.897H544.598V867.496H551.004V849.897Z" fill="#D4DFE9"/>
<path opacity="0.29" d="M563.694 849.897H557.288V867.496H563.694V849.897Z" fill="#D4DFE9"/>
<path d="M576.382 849.897H569.976V867.496H576.382V849.897Z" fill="#D4DFE9"/>
<path d="M589.072 849.897H582.665V867.496H589.072V849.897Z" fill="#D4DFE9"/>
<path d="M601.76 849.897H595.353V867.496H601.76V849.897Z" fill="#D4DFE9"/>
<path d="M414.609 574.967H278.414V858.746H414.609V574.967Z" fill="#D4DFE9"/>
<path d="M418.48 570.086H274.545V578.107H418.48V570.086Z" fill="#D4DFE9"/>
<path d="M410.031 559.821H282.992V597.946H410.031V559.821Z" fill="#D4DFE9"/>
<path d="M343.024 544.22H292.717V585.875H343.024V544.22Z" fill="#D4DFE9"/>
<path d="M321.83 555.96H292.717V534.033H313.596L321.83 555.96Z" fill="#D4DFE9"/>
<path d="M307.273 515.833H304.451V564.675H307.273V515.833Z" fill="#D4DFE9"/>
<path d="M308.395 513.3C308.395 514.698 307.261 515.831 305.86 515.831C304.461 515.831 303.324 514.698 303.324 513.3C303.324 511.903 304.459 510.768 305.86 510.768C307.261 510.77 308.395 511.903 308.395 513.3Z" fill="#D4DFE9"/>
<path d="M1542.44 880.349H1393.36L1374.75 463.116L1542.44 497.886V880.349Z" fill="#D4DFE9"/>
<path d="M892.013 642.072V502.581H868.631V465.217H860.278V410.415H814.258V370.141H810.162V410.415H801.147V360H797.053V410.415H767.959V502.581H752.931V642.072H740.048V896.144H901.071V642.072H892.013Z" fill="#D4DFE9"/>
<path d="M1869.35 875.176H88.0707V917.495H1869.35V875.176Z" fill="#D4DFE9"/>
<path d="M1136.58 907.125H1057.71L1088.44 749.35H1136.58V907.125Z" fill="#A2AFBC"/>
<path d="M1894.42 913.271H24.1615V979.999H1894.42V913.271Z" fill="#A2AFBC"/>
<path d="M1071.94 615.163V545.249H1046.62V518.632H1033.07V496.271H1028.31V457.944H1027.08V496.271H1022.33V518.632H1008.78V545.249H983.645V615.163H978.421V742.096H939.453V886.793H978.421H1017.39H1076.97V615.163H1071.94Z" fill="#A2AFBC"/>
<path d="M1217.5 695.475H1094.91V697.701H1100.46V904.76H1211.95V697.701H1217.5V695.475Z" fill="#A2AFBC"/>
<path d="M658.495 747.05H549.807V919.533H658.495V747.05Z" fill="#A2AFBC"/>
<path d="M533.436 835.42H346.511V919.531H533.436V835.42Z" fill="#A2AFBC"/>
<path d="M487.739 647.5H446.704V854.054H487.739V647.5Z" fill="#A2AFBC"/>
<path d="M457.894 592.401H455.763V704.727H457.894V592.401Z" fill="#A2AFBC"/>
<path d="M464.823 600.918H462.693V713.245H464.823V600.918Z" fill="#A2AFBC"/>
<path d="M474.951 634.723H449.868V662.405H474.951V634.723Z" fill="#A2AFBC"/>
<path d="M597.524 777.926H526.111V919.531H597.524V777.926Z" fill="#A2AFBC"/>
<path d="M810.167 628.072H676.113V919.531H810.167V628.072Z" fill="#A2AFBC"/>
<path d="M796.996 618.054H689.284V666.599H796.996V618.054Z" fill="#A2AFBC"/>
<path d="M820.558 634.17H665.722V637.579H820.558V634.17Z" fill="#A2AFBC"/>
<path d="M714.991 772.337H651.826V919.533H714.991V772.337Z" fill="#A2AFBC"/>
<path d="M271.9 766.746H199.42V919.531H271.9V766.746Z" fill="#A2AFBC"/>
<path d="M367.296 725.224H222.871V919.533H367.296V725.224Z" fill="#A2AFBC"/>
<path d="M371.027 717.77H214.444V725.224H371.027V717.77Z" fill="#A2AFBC"/>
<path d="M292.736 697.54H229.265V736.934H292.736V697.54Z" fill="#A2AFBC"/>
<path d="M324.126 697.54H313.468V721.497H324.126V697.54Z" fill="#A2AFBC"/>
<path d="M346.511 697.54H334.786V721.497H346.511V697.54Z" fill="#A2AFBC"/>
<path d="M235.659 860.441H159.983V919.533H235.659V860.441Z" fill="#A2AFBC"/>
<path d="M167.233 835.42H131.398V919.531H167.233V835.42Z" fill="#A2AFBC"/>
<path d="M149.316 889.987H88.0707V919.533H149.316V889.987Z" fill="#A2AFBC"/>
<path d="M1551.66 854.052H796.998V919.531H1551.66V854.052Z" fill="#A2AFBC"/>
<path d="M1491.4 672.795C1486.65 672.795 1482.76 676.447 1482.37 681.093L1471.75 680.748C1471.78 679.709 1471.79 678.667 1471.79 677.624C1471.79 664.42 1469.51 651.566 1465.14 639.51L1474.01 636.246C1475.41 639.46 1478.61 641.708 1482.34 641.708C1487.34 641.708 1491.4 637.652 1491.4 632.649C1491.4 627.647 1487.34 623.591 1482.34 623.591C1477.33 623.591 1473.27 627.647 1473.27 632.649C1473.27 633.573 1473.41 634.464 1473.66 635.304L1464.79 638.565C1459.74 625.022 1452.03 612.507 1441.93 601.666L1448.88 595.168C1450.5 596.722 1452.71 597.678 1455.14 597.678C1460.15 597.678 1464.21 593.622 1464.21 588.619C1464.21 583.617 1460.15 579.561 1455.14 579.561C1450.13 579.561 1446.07 583.617 1446.07 588.619C1446.07 590.834 1446.87 592.862 1448.19 594.437L1441.25 600.937C1440.53 600.183 1439.8 599.435 1439.06 598.698C1428.55 588.196 1416.31 580.045 1402.99 574.508L1406.81 565.22C1407.67 565.494 1408.59 565.643 1409.55 565.643C1414.56 565.643 1418.62 561.587 1418.62 556.585C1418.62 551.582 1414.56 547.527 1409.55 547.527C1404.54 547.527 1400.48 551.582 1400.48 556.585C1400.48 560.276 1402.69 563.45 1405.86 564.862L1402.05 574.129C1390.13 569.303 1377.35 566.556 1364.18 566.081L1364.59 553.384C1364.69 553.386 1364.78 553.39 1364.88 553.39C1369.89 553.39 1373.95 549.334 1373.95 544.332C1373.95 539.329 1369.89 535.274 1364.88 535.274C1359.87 535.274 1355.81 539.329 1355.81 544.332C1355.81 548.897 1359.19 552.669 1363.59 553.298L1363.17 566.049C1362.13 566.02 1361.09 566.005 1360.05 566.005C1347.36 566.005 1335 568.104 1323.36 572.133L1319.7 561.77C1323 560.414 1325.32 557.173 1325.32 553.39C1325.32 548.388 1321.26 544.332 1316.25 544.332C1311.24 544.332 1307.18 548.388 1307.18 553.39C1307.18 558.393 1311.24 562.448 1316.25 562.448C1317.12 562.448 1317.95 562.325 1318.75 562.098L1322.4 572.464C1308.28 577.496 1295.25 585.383 1284 595.83L1277.38 588.766C1278.86 587.153 1279.77 585.004 1279.77 582.641C1279.77 577.638 1275.71 573.583 1270.7 573.583C1265.69 573.583 1261.63 577.638 1261.63 582.641C1261.63 587.643 1265.69 591.699 1270.7 591.699C1272.98 591.699 1275.06 590.855 1276.66 589.466L1283.27 596.519C1282.52 597.234 1281.77 597.958 1281.03 598.696C1271.68 608.037 1264.19 618.742 1258.75 630.362L1250.32 626.476C1250.63 625.569 1250.79 624.599 1250.79 623.589C1250.79 618.587 1246.73 614.531 1241.72 614.531C1236.72 614.531 1232.66 618.587 1232.66 623.589C1232.66 628.592 1236.72 632.647 1241.72 632.647C1245.37 632.647 1248.5 630.502 1249.95 627.41L1258.32 631.271C1252.31 644.414 1248.9 658.701 1248.37 673.495L1237.56 673.143C1237.42 668.256 1233.42 664.336 1228.5 664.336C1223.49 664.336 1219.43 668.392 1219.43 673.395C1219.43 678.397 1223.49 682.453 1228.5 682.453C1233.25 682.453 1237.15 678.797 1237.53 674.149L1248.34 674.501C1248.31 675.54 1248.29 676.581 1248.29 677.624C1248.29 690.828 1250.57 703.682 1254.95 715.738L1246.07 719.002C1244.68 715.789 1241.48 713.541 1237.75 713.541C1232.74 713.541 1228.68 717.596 1228.68 722.599C1228.68 727.601 1232.74 731.657 1237.75 731.657C1242.76 731.657 1246.82 727.601 1246.82 722.599C1246.82 721.675 1246.68 720.785 1246.42 719.945L1255.3 716.681C1260.35 730.224 1268.06 742.739 1278.15 753.58L1271.21 760.078C1269.58 758.526 1267.38 757.569 1264.95 757.569C1259.94 757.569 1255.88 761.624 1255.88 766.627C1255.88 771.629 1259.94 775.685 1264.95 775.685C1269.96 775.685 1274.02 771.629 1274.02 766.627C1274.02 764.413 1273.22 762.385 1271.9 760.809L1278.84 754.311C1279.56 755.065 1280.29 755.813 1281.02 756.55C1288.1 763.623 1295.97 769.629 1304.42 774.489L1249.74 875.17H1239.92V878.049H1235.11V883.766H1484.97V878.049H1480.16V875.17H1470.34L1415.66 774.489C1422.95 770.299 1429.79 765.259 1436.08 759.418L1444.94 768.864C1443.04 770.525 1441.83 772.964 1441.83 775.687C1441.83 780.69 1445.89 784.745 1450.9 784.745C1455.91 784.745 1459.97 780.69 1459.97 775.687C1459.97 770.685 1455.91 766.629 1450.9 766.629C1448.98 766.629 1447.2 767.226 1445.74 768.244L1436.81 758.731C1437.57 758.017 1438.32 757.292 1439.06 756.555C1448.41 747.214 1455.89 736.509 1461.34 724.889L1471.21 729.439C1471.03 730.149 1470.93 730.893 1470.93 731.657C1470.93 736.66 1474.99 740.715 1480 740.715C1485.01 740.715 1489.07 736.66 1489.07 731.657C1489.07 726.655 1485.01 722.599 1480 722.599C1476.11 722.599 1472.8 725.039 1471.51 728.471L1461.76 723.975C1467.77 710.832 1471.18 696.545 1471.72 681.751L1482.34 682.097C1482.47 686.986 1486.47 690.91 1491.4 690.91C1496.41 690.91 1500.47 686.854 1500.47 681.852C1500.47 676.849 1496.41 672.795 1491.4 672.795ZM1468.77 677.626C1468.77 678.636 1468.75 679.646 1468.73 680.651L1437.44 679.635C1437.46 678.967 1437.46 678.297 1437.46 677.626C1437.46 668.415 1435.84 659.577 1432.87 651.378L1462.3 640.556C1466.55 652.283 1468.77 664.783 1468.77 677.626ZM1435.93 679.587L1366.13 677.32C1366.11 676.866 1366.03 676.424 1365.92 676.001L1431.45 651.899C1434.36 659.935 1435.95 668.597 1435.95 677.626C1435.95 678.282 1435.94 678.936 1435.93 679.587ZM1284.16 675.665L1353.95 677.932C1353.98 678.387 1354.05 678.829 1354.17 679.252L1288.64 703.353C1285.73 695.317 1284.14 686.655 1284.14 677.626C1284.13 676.971 1284.14 676.317 1284.16 675.665ZM1364.82 673.843L1415.75 626.174C1422.35 633.305 1427.61 641.701 1431.1 650.957L1365.57 675.056C1365.37 674.622 1365.12 674.216 1364.82 673.843ZM1364.13 673.108C1363.74 672.752 1363.3 672.446 1362.82 672.203L1389.34 607.679C1399.12 611.78 1407.86 617.87 1415.06 625.437L1364.13 673.108ZM1361.89 671.819C1361.52 671.704 1361.14 671.622 1360.75 671.576L1363.01 601.863C1371.96 602.209 1380.52 604.107 1388.41 607.297L1361.89 671.819ZM1359.74 671.543C1359.31 671.564 1358.9 671.629 1358.5 671.733L1335.28 605.944C1343.05 603.261 1351.38 601.798 1360.04 601.798C1360.7 601.798 1361.35 601.807 1362.01 601.823L1359.74 671.543ZM1357.55 672.069C1357.08 672.276 1356.65 672.542 1356.26 672.854L1308.53 621.982C1315.93 615.149 1324.68 609.763 1334.33 606.281L1357.55 672.069ZM1355.52 673.541C1355.22 673.872 1354.96 674.237 1354.74 674.626L1291.35 645.395C1295.39 636.822 1301 629.124 1307.8 622.67L1355.52 673.541ZM1354.31 675.538C1354.15 675.978 1354.04 676.443 1353.99 676.925L1284.2 674.658C1284.59 664.584 1286.95 655.004 1290.92 646.302L1354.31 675.538ZM1354.51 680.195C1354.68 680.544 1354.87 680.878 1355.1 681.188L1354.68 681.952L1304.34 729.076C1297.73 721.945 1292.48 713.549 1288.99 704.294L1354.51 680.195ZM1353.16 684.757L1321.55 742.955C1315.44 739.352 1309.88 734.921 1305.02 729.814L1353.16 684.757ZM1356.6 682.65C1356.81 682.796 1357.04 682.928 1357.27 683.048L1330.74 747.572C1328.19 746.499 1325.7 745.291 1323.3 743.956L1356.6 682.65ZM1358.2 683.433C1358.57 683.548 1358.95 683.63 1359.34 683.676L1357.07 753.389C1348.13 753.044 1339.57 751.146 1331.67 747.955L1358.2 683.433ZM1360.04 753.452C1359.39 753.452 1358.73 753.444 1358.08 753.427L1360.35 683.708C1360.77 683.687 1361.19 683.622 1361.59 683.517L1384.8 749.306C1377.04 751.99 1368.71 753.452 1360.04 753.452ZM1362.54 683.182C1362.87 683.031 1363.19 682.855 1363.49 682.65L1396.79 743.956C1393.27 745.908 1389.58 747.591 1385.75 748.971L1362.54 683.182ZM1368.14 686.995L1411.55 733.272C1407.58 736.943 1403.22 740.194 1398.54 742.957L1368.14 686.995ZM1366.24 683.498L1364.99 681.188C1365.12 681.007 1365.24 680.821 1365.35 680.626L1428.74 709.858C1424.69 718.43 1419.09 726.129 1412.29 732.583L1366.24 683.498ZM1365.77 679.715C1365.93 679.273 1366.04 678.808 1366.1 678.328L1435.89 680.595C1435.5 690.671 1433.14 700.249 1429.17 708.951L1365.77 679.715ZM1330.17 748.969L1318.25 777.952C1314.62 776.441 1311.07 774.732 1307.62 772.83L1322.58 745.284C1325.03 746.644 1327.56 747.878 1330.17 748.969ZM1331.1 749.35C1339.16 752.608 1347.89 754.546 1357.03 754.898L1356.01 786.157C1343.2 785.694 1330.78 783.023 1319.19 778.331L1331.1 749.35ZM1358.03 754.935C1358.7 754.952 1359.37 754.96 1360.04 754.96C1368.88 754.96 1377.38 753.469 1385.3 750.729L1395.73 780.271C1384.4 784.188 1372.38 786.228 1360.04 786.228C1359.03 786.228 1358.02 786.214 1357.02 786.187L1358.03 754.935ZM1386.25 750.396C1390.16 748.988 1393.92 747.272 1397.51 745.284L1412.47 772.83C1407.4 775.624 1402.12 778.002 1396.68 779.942L1386.25 750.396ZM1461.95 639.611L1432.52 650.435C1428.96 640.989 1423.59 632.421 1416.85 625.144L1439.72 603.734C1449.54 614.275 1457.03 626.442 1461.95 639.611ZM1436.92 600.83C1437.64 601.545 1438.34 602.27 1439.03 603.001L1416.17 624.408C1408.82 616.682 1399.9 610.469 1389.92 606.283L1401.83 577.301C1414.79 582.687 1426.7 590.616 1436.92 600.83ZM1400.9 576.92L1388.98 605.902C1380.92 602.645 1372.19 600.707 1363.06 600.355L1364.08 569.093C1376.89 569.556 1389.31 572.227 1400.9 576.92ZM1360.04 569.02C1361.05 569.02 1362.06 569.035 1363.07 569.062L1362.05 600.315C1361.38 600.298 1360.72 600.29 1360.04 600.29C1351.2 600.29 1342.7 601.782 1334.78 604.522L1324.36 574.98C1335.68 571.06 1347.71 569.02 1360.04 569.02ZM1323.41 575.311L1333.83 604.855C1323.98 608.408 1315.05 613.905 1307.5 620.878L1286.07 598.03C1297 587.874 1309.68 580.206 1323.41 575.311ZM1283.16 600.83C1283.88 600.116 1284.6 599.414 1285.34 598.721L1306.77 621.566C1299.82 628.152 1294.1 636.01 1289.97 644.76L1261.49 631.627C1266.78 620.325 1274.07 609.914 1283.16 600.83ZM1261.07 632.54L1289.55 645.673C1285.5 654.553 1283.09 664.328 1282.69 674.612L1251.39 673.596C1251.91 659.212 1255.22 645.319 1261.07 632.54ZM1251.32 677.626C1251.32 676.617 1251.33 675.607 1251.36 674.601L1282.65 675.617C1282.63 676.286 1282.62 676.954 1282.62 677.626C1282.62 686.837 1284.24 695.676 1287.22 703.875L1257.79 714.697C1253.54 702.97 1251.32 690.468 1251.32 677.626ZM1258.13 715.642L1287.57 704.818C1291.13 714.263 1296.49 722.831 1303.23 730.109L1280.36 751.519C1270.55 740.977 1263.05 728.81 1258.13 715.642ZM1283.16 754.422C1282.45 753.708 1281.74 752.983 1281.05 752.254L1303.92 730.846C1308.89 736.071 1314.58 740.602 1320.83 744.285L1305.86 771.841C1297.66 767.117 1290.04 761.287 1283.16 754.422ZM1468.06 875.177H1252.03L1306.17 775.486C1309.72 777.441 1313.37 779.196 1317.1 780.748L1313.28 790.037C1312.42 789.762 1311.5 789.614 1310.54 789.614C1305.53 789.614 1301.47 793.669 1301.47 798.672C1301.47 803.675 1305.53 807.73 1310.54 807.73C1315.54 807.73 1319.61 803.675 1319.61 798.672C1319.61 794.981 1317.4 791.807 1314.23 790.395L1318.04 781.127C1329.96 785.954 1342.73 788.7 1355.91 789.176L1355.6 798.676C1350.69 798.787 1346.74 802.797 1346.74 807.73C1346.74 812.733 1350.8 816.788 1355.81 816.788C1360.82 816.788 1364.88 812.733 1364.88 807.73C1364.88 802.996 1361.24 799.112 1356.61 798.708L1356.92 789.207C1357.96 789.237 1359 789.251 1360.04 789.251C1372.73 789.251 1385.09 787.152 1396.73 783.124L1399.99 792.36C1396.91 793.806 1394.77 796.935 1394.77 800.566C1394.77 805.568 1398.83 809.624 1403.84 809.624C1408.85 809.624 1412.91 805.568 1412.91 800.566C1412.91 795.563 1408.85 791.508 1403.84 791.508C1402.82 791.508 1401.84 791.677 1400.93 791.987L1397.68 782.793C1403.28 780.799 1408.7 778.358 1413.91 775.488L1468.06 875.177ZM1414.22 771.839L1399.26 744.283C1404.05 741.457 1408.52 738.128 1412.59 734.372L1434.02 757.221C1427.92 762.883 1421.28 767.773 1414.22 771.839ZM1436.92 754.422C1436.21 755.136 1435.48 755.838 1434.75 756.532L1413.32 733.687C1420.26 727.101 1425.98 719.243 1430.11 710.493L1458.59 723.625C1453.3 734.925 1446.02 745.337 1436.92 754.422ZM1459.02 722.712L1430.54 709.579C1434.59 700.699 1437 690.922 1437.4 680.641L1468.69 681.657C1468.17 696.04 1464.86 709.933 1459.02 722.712Z" fill="#A2AFBC"/>
<path d="M1629.83 748.973H1513.29V919.533H1629.83V748.973Z" fill="#A2AFBC"/>
<path d="M1729.31 815.284H1612.77V918.57H1729.31V815.284Z" fill="#A2AFBC"/>
<path d="M1226.21 800.117H1160.84V886.792H1226.21V800.117Z" fill="#A2AFBC"/>
<path d="M1653.99 586.77H1571.56V919.531H1653.99V586.77Z" fill="#A2AFBC"/>
<path d="M1789.71 919.531H1680.99V725.224H1763.42L1789.71 919.531Z" fill="#A2AFBC"/>
<path d="M1837.32 875.176H1742.1V919.533H1837.32V875.176Z" fill="#A2AFBC"/>
<path d="M1635.51 517.251H1632.67V607.679H1635.51V517.251Z" fill="#A2AFBC"/>
<path d="M1645.1 536.656H1642.26V627.083H1645.1V536.656Z" fill="#A2AFBC"/>
<path d="M1626.81 549.139H1623.97V639.566H1626.81V549.139Z" fill="#A2AFBC"/>
<path d="M1724.16 709.519H1685.25V740.129H1724.16V709.519Z" fill="#A2AFBC"/>
<path d="M1719.89 698.606H1689.52V715.812H1719.89V698.606Z" fill="#A2AFBC"/>
<path d="M1747.07 718.484H1739.61V730.844H1747.07V718.484Z" fill="#A2AFBC"/>
<path d="M1760.37 707.208H1749.71V730.844H1760.37V707.208Z" fill="#A2AFBC"/>
<path d="M1259.33 661.833H1160.51V980H1259.33V661.833Z" fill="#778490"/>
<path d="M1266.71 663.719H1153.13V666.943H1266.71V663.719Z" fill="#778490"/>
<path d="M1263.64 708.41H1156.2V711.624H1263.64V708.41Z" fill="#778490"/>
<path d="M1263.64 751.692H1156.2V754.906H1263.64V751.692Z" fill="#778490"/>
<path d="M1263.64 794.975H1156.2V798.188H1263.64V794.975Z" fill="#778490"/>
<path d="M1263.64 838.256H1156.2V841.47H1263.64V838.256Z" fill="#778490"/>
<path d="M1263.64 881.539H1156.2V884.752H1263.64V881.539Z" fill="#778490"/>
<path d="M1263.64 924.821H1156.2V928.034H1263.64V924.821Z" fill="#778490"/>
<path d="M1270.47 654.928H1149.37V663.718H1270.47V654.928Z" fill="#778490"/>
<path opacity="0.29" d="M1179.67 677.394H1169.41V702.811H1179.67V677.394Z" fill="#778490"/>
<path d="M1202.64 677.394H1192.37V702.811H1202.64V677.394Z" fill="#778490"/>
<path d="M1225.61 677.394H1215.34V702.811H1225.61V677.394Z" fill="#778490"/>
<path d="M1248.57 677.394H1238.3V702.811H1248.57V677.394Z" fill="#778490"/>
<path d="M1179.67 718.95H1169.41V744.367H1179.67V718.95Z" fill="#778490"/>
<path opacity="0.29" d="M1202.64 718.95H1192.37V744.367H1202.64V718.95Z" fill="#778490"/>
<path d="M1225.61 718.95H1215.34V744.367H1225.61V718.95Z" fill="#778490"/>
<path d="M1248.57 718.95H1238.3V744.367H1248.57V718.95Z" fill="#778490"/>
<path d="M1179.67 762.231H1169.41V787.649H1179.67V762.231Z" fill="#778490"/>
<path d="M1202.64 762.231H1192.37V787.649H1202.64V762.231Z" fill="#778490"/>
<path d="M1225.61 762.231H1215.34V787.649H1225.61V762.231Z" fill="#778490"/>
<path opacity="0.29" d="M1248.57 762.231H1238.3V787.649H1248.57V762.231Z" fill="#778490"/>
<path d="M1179.67 805.514H1169.41V830.931H1179.67V805.514Z" fill="#778490"/>
<path opacity="0.29" d="M1202.64 805.514H1192.37V830.931H1202.64V805.514Z" fill="#778490"/>
<path opacity="0.29" d="M1225.61 805.514H1215.34V830.931H1225.61V805.514Z" fill="#778490"/>
<path d="M1248.57 805.514H1238.3V830.931H1248.57V805.514Z" fill="#778490"/>
<path opacity="0.29" d="M1179.67 848.796H1169.41V874.213H1179.67V848.796Z" fill="#778490"/>
<path d="M1202.64 848.796H1192.37V874.213H1202.64V848.796Z" fill="#778490"/>
<path d="M1225.61 848.796H1215.34V874.213H1225.61V848.796Z" fill="#778490"/>
<path d="M1248.57 848.796H1238.3V874.213H1248.57V848.796Z" fill="#778490"/>
<path d="M1179.67 892.078H1169.41V917.495H1179.67V892.078Z" fill="#778490"/>
<path d="M1202.64 892.078H1192.37V917.495H1202.64V892.078Z" fill="#778490"/>
<path opacity="0.29" d="M1225.61 892.078H1215.34V917.495H1225.61V892.078Z" fill="#778490"/>
<path d="M1248.57 892.078H1238.3V917.495H1248.57V892.078Z" fill="#778490"/>
<path d="M1179.67 935.36H1169.41V960.777H1179.67V935.36Z" fill="#778490"/>
<path opacity="0.29" d="M1202.64 935.36H1192.37V960.777H1202.64V935.36Z" fill="#778490"/>
<path d="M1225.61 935.36H1215.34V960.777H1225.61V935.36Z" fill="#778490"/>
<path opacity="0.29" d="M1248.57 935.36H1238.3V960.777H1248.57V935.36Z" fill="#778490"/>
<path d="M1200.36 642.799H1166.75V659.323H1200.36V642.799Z" fill="#778490"/>
<path d="M1202.64 642.328H1164.47V645.152H1202.64V642.328Z" fill="#778490"/>
<path d="M1018.88 979.999H887.248V677.697L1018.88 645.535V979.999Z" fill="#778490"/>
<path d="M893.03 672.376H881.464V979.999H893.03V672.376Z" fill="#778490"/>
<path d="M925.939 663.708H914.373V980H925.939V663.708Z" fill="#778490"/>
<path d="M958.848 654.704H947.282V979.999H958.848V654.704Z" fill="#778490"/>
<path d="M991.754 647.368H980.188V979.999H991.754V647.368Z" fill="#778490"/>
<path d="M1024.66 639.566H1013.1V979.999H1024.66V639.566Z" fill="#778490"/>
<path opacity="0.29" d="M911.376 698.191H896.025V721.553H911.376V698.191Z" fill="#778490"/>
<path opacity="0.29" d="M944.285 698.191H928.934V721.553H944.285V698.191Z" fill="#778490"/>
<path d="M977.194 698.191H961.842V721.553H977.194V698.191Z" fill="#778490"/>
<path opacity="0.29" d="M1010.1 698.191H994.751V721.553H1010.1V698.191Z" fill="#778490"/>
<path d="M911.376 738.872H896.025V762.234H911.376V738.872Z" fill="#778490"/>
<path d="M944.285 738.872H928.934V762.234H944.285V738.872Z" fill="#778490"/>
<path opacity="0.29" d="M977.194 738.872H961.842V762.234H977.194V738.872Z" fill="#778490"/>
<path opacity="0.29" d="M1010.1 738.872H994.751V762.234H1010.1V738.872Z" fill="#778490"/>
<path opacity="0.29" d="M911.376 779.552H896.025V802.914H911.376V779.552Z" fill="#778490"/>
<path opacity="0.29" d="M944.285 779.552H928.934V802.914H944.285V779.552Z" fill="#778490"/>
<path opacity="0.29" d="M977.194 779.552H961.842V802.914H977.194V779.552Z" fill="#778490"/>
<path d="M1010.1 779.552H994.751V802.914H1010.1V779.552Z" fill="#778490"/>
<path opacity="0.29" d="M911.376 820.232H896.025V843.594H911.376V820.232Z" fill="#778490"/>
<path d="M944.285 820.232H928.934V843.594H944.285V820.232Z" fill="#778490"/>
<path opacity="0.29" d="M977.194 820.232H961.842V843.594H977.194V820.232Z" fill="#778490"/>
<path opacity="0.29" d="M1010.1 820.232H994.751V843.594H1010.1V820.232Z" fill="#778490"/>
<path opacity="0.29" d="M911.376 860.91H896.025V884.272H911.376V860.91Z" fill="#778490"/>
<path opacity="0.29" d="M944.285 860.91H928.934V884.272H944.285V860.91Z" fill="#778490"/>
<path d="M977.194 860.91H961.842V884.272H977.194V860.91Z" fill="#778490"/>
<path opacity="0.29" d="M1010.1 860.91H994.751V884.272H1010.1V860.91Z" fill="#778490"/>
<path d="M911.376 901.59H896.025V924.952H911.376V901.59Z" fill="#778490"/>
<path d="M944.285 901.59H928.934V924.952H944.285V901.59Z" fill="#778490"/>
<path opacity="0.29" d="M977.194 901.59H961.842V924.952H977.194V901.59Z" fill="#778490"/>
<path opacity="0.29" d="M1010.1 901.59H994.751V924.952H1010.1V901.59Z" fill="#778490"/>
<path opacity="0.29" d="M911.376 942.269H896.025V965.631H911.376V942.269Z" fill="#778490"/>
<path d="M944.285 942.269H928.934V965.631H944.285V942.269Z" fill="#778490"/>
<path opacity="0.29" d="M977.194 942.269H961.842V965.631H977.194V942.269Z" fill="#778490"/>
<path d="M1010.1 942.269H994.751V965.631H1010.1V942.269Z" fill="#778490"/>
<path d="M511.745 692.179V695.317H508.616V704.262H563.694V979.999H473.311V718.648V704.262V695.317H470.031V692.179H511.745Z" fill="#778490"/>
<path d="M743.141 817.427H665.722V979.999H743.141V817.427Z" fill="#778490"/>
<path d="M391.225 780.159H328.293V979.999H391.225V780.159Z" fill="#778490"/>
<path d="M447.339 821.797H378.76V979.999H447.339V821.797Z" fill="#778490"/>
<path d="M378.76 772.138H350.934V796.053H378.76V772.138Z" fill="#778490"/>
<path d="M456.571 819.191H383.466V825.04H456.571V819.191Z" fill="#778490"/>
<path d="M516.863 889.652H439.974V979.999H516.863V889.652Z" fill="#778490"/>
<path d="M254.016 816.164H191.472V979.999H254.016V816.164Z" fill="#778490"/>
<path d="M219.477 897.81H137.197V980H219.477V897.81Z" fill="#778490"/>
<path d="M98.0616 884.377H46.595V979.999H98.0616V884.377Z" fill="#778490"/>
<path d="M209.713 950.047H88.0707V979.999H209.713V950.047Z" fill="#778490"/>
<path d="M62.3447 940.367H0V979.999H62.3447V940.367Z" fill="#778490"/>
<path d="M350.934 919.531H254.016V980H350.934V919.531Z" fill="#778490"/>
<path d="M689.286 953.95H538.317V979.999H689.286V953.95Z" fill="#778490"/>
<path d="M956.95 953.95H805.981V979.999H956.95V953.95Z" fill="#778490"/>
<path d="M683.407 877.477H626.027L601.76 966.976H683.407V877.477Z" fill="#778490"/>
<path d="M711.526 747.253H709.928V846.538H711.526V747.253Z" fill="#778490"/>
<path d="M720.053 780.851H717.923V839.434H720.053V780.851Z" fill="#778490"/>
<path d="M735.53 791.233H706.499V820.232H735.53V791.233Z" fill="#778490"/>
<path d="M740.048 788.979H701.598V791.577H740.048V788.979Z" fill="#778490"/>
<path d="M822.865 896.144H729.061V979.997H822.865V896.144Z" fill="#778490"/>
<path d="M865.192 803.835H804.926V965.633H865.192V803.835Z" fill="#778490"/>
<path d="M1136.58 834.253H1040.3V979.999H1136.58V834.253Z" fill="#778490"/>
<path d="M1119.88 926.295H1010.1V979.999H1119.88V926.295Z" fill="#778490"/>
<path d="M1202.64 960.777H1131.25V979.999H1202.64V960.777Z" fill="#778490"/>
<path d="M1357.27 926.295H1241.2V979.999H1357.27V926.295Z" fill="#778490"/>
<path d="M1287.44 980H1431.87V785.691H1287.44V980Z" fill="#778490"/>
<path d="M1283.71 785.692H1440.3V778.238H1283.71V785.692Z" fill="#778490"/>
<path d="M1362 797.402H1425.48V758.008H1362V797.402Z" fill="#778490"/>
<path d="M1330.61 781.964H1341.27V758.007H1330.61V781.964Z" fill="#778490"/>
<path d="M1308.23 781.964H1319.95V758.007H1308.23V781.964Z" fill="#778490"/>
<path d="M1531.15 980H1645.48V696.22H1531.15V980Z" fill="#778490"/>
<path d="M1527.91 699.361H1648.73V691.34H1527.91V699.361Z" fill="#778490"/>
<path d="M1535 719.197H1641.64V681.073H1535V719.197Z" fill="#778490"/>
<path d="M1591.25 707.13H1633.47V665.476H1591.25V707.13Z" fill="#778490"/>
<path d="M1609.04 677.216H1633.47V655.287H1615.94L1609.04 677.216Z" fill="#778490"/>
<path d="M1621.25 685.929H1623.62V637.087H1621.25V685.929Z" fill="#778490"/>
<path d="M1620.31 634.556C1620.31 635.953 1621.26 637.086 1622.44 637.086C1623.61 637.086 1624.57 635.953 1624.57 634.556C1624.57 633.156 1623.61 632.023 1622.44 632.023C1621.26 632.023 1620.31 633.156 1620.31 634.556Z" fill="#778490"/>
<path d="M1680.99 862.848H1629.83V979.999H1680.99V862.848Z" fill="#778490"/>
<path d="M1542.44 805.731H1484.09V979.999H1542.44V805.731Z" fill="#778490"/>
<path d="M1513.29 979.999H1431.1V886.792L1500.47 917.495L1513.29 979.999Z" fill="#778490"/>
<path d="M1789.71 929.379H1664.19V979.999H1789.71V929.379Z" fill="#778490"/>
<path d="M1816.26 777.926H1743.34V979.999H1816.26V777.926Z" fill="#778490"/>
<path d="M1920 942.269H1799.2V979.997H1920V942.269Z" fill="#778490"/>
<path d="M1819.59 774.227H1739.61V780.851H1819.59V774.227Z" fill="#778490"/>
<path d="M1806.48 745.713H1804.88V786.436H1806.48V745.713Z" fill="#778490"/>
<path d="M1795.82 750.869H1794.23V783.537H1795.82V750.869Z" fill="#778490"/>
<path d="M1843.26 854.052H1810.75V946.634H1857.11L1843.26 854.052Z" fill="#778490"/>
<g opacity="0.52">
<path d="M339.549 790.277H334.786V795.035H339.549V790.277Z" fill="white"/>
<path d="M349.12 790.277H344.358V795.035H349.12V790.277Z" fill="white"/>
<path d="M339.549 801.456H334.786V806.213H339.549V801.456Z" fill="white"/>
<path d="M349.12 801.456H344.358V806.213H349.12V801.456Z" fill="white"/>
<path d="M339.549 812.263H334.786V817.021H339.549V812.263Z" fill="white"/>
<path d="M359.757 790.277H354.994V795.035H359.757V790.277Z" fill="white"/>
</g>
<path opacity="0.5" d="M686.656 647.368H683.407V665.331H686.656V647.368Z" fill="white"/>
<path opacity="0.5" d="M697.853 647.368H694.604V665.331H697.853V647.368Z" fill="white"/>
<path opacity="0.5" d="M709.049 647.368H705.801V665.331H709.049V647.368Z" fill="white"/>
<path opacity="0.5" d="M720.246 647.368H716.998V665.331H720.246V647.368Z" fill="white"/>
<path opacity="0.5" d="M731.443 647.368H728.194V665.331H731.443V647.368Z" fill="white"/>
<path opacity="0.5" d="M742.64 647.368H739.391V665.331H742.64V647.368Z" fill="white"/>
<path opacity="0.5" d="M753.837 647.368H750.588V665.331H753.837V647.368Z" fill="white"/>
<path opacity="0.5" d="M765.031 647.368H761.783V665.331H765.031V647.368Z" fill="white"/>
<path opacity="0.5" d="M776.228 647.368H772.98V665.331H776.228V647.368Z" fill="white"/>
<path opacity="0.5" d="M787.425 647.368H784.176V665.331H787.425V647.368Z" fill="white"/>
<path opacity="0.5" d="M798.622 647.368H795.373V665.331H798.622V647.368Z" fill="white"/>
<path opacity="0.5" d="M686.656 672.376H683.407V690.34H686.656V672.376Z" fill="white"/>
<path opacity="0.5" d="M697.853 672.376H694.604V690.34H697.853V672.376Z" fill="white"/>
<path opacity="0.5" d="M709.049 672.376H705.801V690.34H709.049V672.376Z" fill="white"/>
<path opacity="0.5" d="M720.246 672.376H716.998V690.34H720.246V672.376Z" fill="white"/>
<path opacity="0.5" d="M731.443 672.376H728.194V690.34H731.443V672.376Z" fill="white"/>
<path opacity="0.5" d="M742.64 672.376H739.391V690.34H742.64V672.376Z" fill="white"/>
<path opacity="0.5" d="M753.837 672.376H750.588V690.34H753.837V672.376Z" fill="white"/>
<path opacity="0.5" d="M765.031 672.376H761.783V690.34H765.031V672.376Z" fill="white"/>
<path opacity="0.5" d="M776.228 672.376H772.98V690.34H776.228V672.376Z" fill="white"/>
<path opacity="0.5" d="M787.425 672.376H784.176V690.34H787.425V672.376Z" fill="white"/>
<path opacity="0.5" d="M798.622 672.376H795.373V690.34H798.622V672.376Z" fill="white"/>
<path opacity="0.5" d="M686.656 697.385H683.407V715.348H686.656V697.385Z" fill="white"/>
<path opacity="0.5" d="M697.853 697.385H694.604V715.348H697.853V697.385Z" fill="white"/>
<path opacity="0.5" d="M709.049 697.385H705.801V715.348H709.049V697.385Z" fill="white"/>
<path opacity="0.5" d="M720.246 697.385H716.998V715.348H720.246V697.385Z" fill="white"/>
<path opacity="0.5" d="M731.443 697.385H728.194V715.348H731.443V697.385Z" fill="white"/>
<path opacity="0.5" d="M742.64 697.385H739.391V715.348H742.64V697.385Z" fill="white"/>
<path opacity="0.5" d="M753.837 697.385H750.588V715.348H753.837V697.385Z" fill="white"/>
<path opacity="0.5" d="M765.031 697.385H761.783V715.348H765.031V697.385Z" fill="white"/>
<path opacity="0.5" d="M776.228 697.385H772.98V715.348H776.228V697.385Z" fill="white"/>
<path opacity="0.5" d="M787.425 697.385H784.176V715.348H787.425V697.385Z" fill="white"/>
<path opacity="0.5" d="M798.622 697.385H795.373V715.348H798.622V697.385Z" fill="white"/>
<path opacity="0.5" d="M720.246 722.394H716.998V740.357H720.246V722.394Z" fill="white"/>
<path opacity="0.5" d="M731.443 722.394H728.194V740.357H731.443V722.394Z" fill="white"/>
<path opacity="0.5" d="M742.64 722.394H739.391V740.357H742.64V722.394Z" fill="white"/>
<path opacity="0.5" d="M753.837 722.394H750.588V740.357H753.837V722.394Z" fill="white"/>
<path opacity="0.5" d="M765.031 722.394H761.783V740.357H765.031V722.394Z" fill="white"/>
<path opacity="0.5" d="M776.228 722.394H772.98V740.357H776.228V722.394Z" fill="white"/>
<path opacity="0.5" d="M787.425 722.394H784.176V740.357H787.425V722.394Z" fill="white"/>
<path opacity="0.5" d="M798.622 722.394H795.373V740.357H798.622V722.394Z" fill="white"/>
<path opacity="0.5" d="M731.443 748.789H728.194V766.752H731.443V748.789Z" fill="white"/>
<path opacity="0.5" d="M742.64 748.789H739.391V766.752H742.64V748.789Z" fill="white"/>
<path opacity="0.5" d="M753.837 748.789H750.588V766.752H753.837V748.789Z" fill="white"/>
<path opacity="0.5" d="M765.031 748.789H761.783V766.752H765.031V748.789Z" fill="white"/>
<path opacity="0.5" d="M776.228 748.789H772.98V766.752H776.228V748.789Z" fill="white"/>
<path opacity="0.5" d="M787.425 748.789H784.176V766.752H787.425V748.789Z" fill="white"/>
<path opacity="0.5" d="M798.622 748.789H795.373V766.752H798.622V748.789Z" fill="white"/>
<path opacity="0.33" d="M907.538 691.953H899.863V711.399H907.538V691.953Z" fill="white"/>
<path opacity="0.33" d="M907.538 729.149H899.863V748.596H907.538V729.149Z" fill="white"/>
<path opacity="0.33" d="M907.538 766.344H899.863V785.79H907.538V766.344Z" fill="white"/>
<path opacity="0.33" d="M907.538 803.54H899.863V822.987H907.538V803.54Z" fill="white"/>
<path opacity="0.33" d="M907.538 838.608H899.863V858.055H907.538V838.608Z" fill="white"/>
<path opacity="0.33" d="M907.538 875.803H899.863V895.249H907.538V875.803Z" fill="white"/>
<path opacity="0.33" d="M940.447 691.953H932.771V711.399H940.447V691.953Z" fill="white"/>
<path opacity="0.33" d="M940.447 729.149H932.771V748.596H940.447V729.149Z" fill="white"/>
<path opacity="0.33" d="M940.447 766.344H932.771V785.79H940.447V766.344Z" fill="white"/>
<path opacity="0.33" d="M940.447 803.54H932.771V822.987H940.447V803.54Z" fill="white"/>
<path opacity="0.33" d="M940.447 838.608H932.771V858.055H940.447V838.608Z" fill="white"/>
<path opacity="0.33" d="M940.447 875.803H932.771V895.249H940.447V875.803Z" fill="white"/>
<path opacity="0.33" d="M973.356 691.953H965.68V711.399H973.356V691.953Z" fill="white"/>
<path opacity="0.33" d="M973.356 729.149H965.68V748.596H973.356V729.149Z" fill="white"/>
<path opacity="0.33" d="M973.356 766.344H965.68V785.79H973.356V766.344Z" fill="white"/>
<path opacity="0.33" d="M973.356 803.54H965.68V822.987H973.356V803.54Z" fill="white"/>
<path opacity="0.33" d="M973.356 838.608H965.68V858.055H973.356V838.608Z" fill="white"/>
<path opacity="0.33" d="M973.356 875.803H965.68V895.249H973.356V875.803Z" fill="white"/>
<path opacity="0.33" d="M1006.26 691.953H998.589V711.399H1006.26V691.953Z" fill="white"/>
<path opacity="0.33" d="M1006.26 729.149H998.589V748.596H1006.26V729.149Z" fill="white"/>
<path opacity="0.33" d="M1006.26 766.344H998.589V785.79H1006.26V766.344Z" fill="white"/>
<path opacity="0.33" d="M1006.26 803.54H998.589V822.987H1006.26V803.54Z" fill="white"/>
<path opacity="0.33" d="M1006.26 838.608H998.589V858.055H1006.26V838.608Z" fill="white"/>
<path opacity="0.33" d="M1006.26 875.803H998.589V895.249H1006.26V875.803Z" fill="white"/>
<path opacity="0.5" d="M782.616 420.77H776.23V437.789H782.616V420.77Z" fill="white"/>
<path opacity="0.5" d="M798.374 420.77H791.988V437.789H798.374V420.77Z" fill="white"/>
<path opacity="0.5" d="M814.13 420.77H807.744V437.789H814.13V420.77Z" fill="white"/>
<path opacity="0.5" d="M829.888 420.77H823.503V437.789H829.888V420.77Z" fill="white"/>
<path opacity="0.5" d="M782.616 449.114H776.23V466.132H782.616V449.114Z" fill="white"/>
<path opacity="0.5" d="M798.374 449.114H791.988V466.132H798.374V449.114Z" fill="white"/>
<path opacity="0.5" d="M814.13 449.114H807.744V466.132H814.13V449.114Z" fill="white"/>
<path opacity="0.5" d="M829.888 449.114H823.503V466.132H829.888V449.114Z" fill="white"/>
<path opacity="0.5" d="M782.616 477.457H776.23V494.476H782.616V477.457Z" fill="white"/>
<path opacity="0.5" d="M798.374 477.457H791.988V494.476H798.374V477.457Z" fill="white"/>
<path opacity="0.5" d="M847.765 420.77H841.379V437.789H847.765V420.77Z" fill="white"/>
<path opacity="0.4" d="M354.994 593.182H350.934V608.782H354.994V593.182Z" fill="white"/>
<path opacity="0.4" d="M369.327 593.182H365.266V608.782H369.327V593.182Z" fill="white"/>
<path opacity="0.4" d="M386.089 593.182H382.029V608.782H386.089V593.182Z" fill="white"/>
<path opacity="0.4" d="M400.419 593.182H396.359V608.782H400.419V593.182Z" fill="white"/>
<path opacity="0.4" d="M323.157 593.182H319.097V608.782H323.157V593.182Z" fill="white"/>
<path opacity="0.4" d="M337.487 593.182H333.427V608.782H337.487V593.182Z" fill="white"/>
<path opacity="0.4" d="M354.994 620.273H350.934V635.873H354.994V620.273Z" fill="white"/>
<path opacity="0.4" d="M369.327 620.273H365.266V635.873H369.327V620.273Z" fill="white"/>
<path opacity="0.4" d="M386.089 620.273H382.029V635.873H386.089V620.273Z" fill="white"/>
<path opacity="0.4" d="M400.419 620.273H396.359V635.873H400.419V620.273Z" fill="white"/>
<path opacity="0.4" d="M323.157 620.273H319.097V635.873H323.157V620.273Z" fill="white"/>
<path opacity="0.4" d="M337.487 620.273H333.427V635.873H337.487V620.273Z" fill="white"/>
<path opacity="0.4" d="M354.994 647.361H350.934V662.962H354.994V647.361Z" fill="white"/>
<path opacity="0.4" d="M369.327 647.361H365.266V662.962H369.327V647.361Z" fill="white"/>
<path opacity="0.4" d="M386.089 647.361H382.029V662.962H386.089V647.361Z" fill="white"/>
<path opacity="0.4" d="M400.419 647.361H396.359V662.962H400.419V647.361Z" fill="white"/>
<path opacity="0.4" d="M323.157 647.361H319.097V662.962H323.157V647.361Z" fill="white"/>
<path opacity="0.4" d="M337.487 647.361H333.427V662.962H337.487V647.361Z" fill="white"/>
<path opacity="0.5" d="M1115.14 712.742H1108.85V736.936H1115.14V712.742Z" fill="white"/>
<path opacity="0.5" d="M1134.4 712.742H1128.1V736.936H1134.4V712.742Z" fill="white"/>
<path opacity="0.5" d="M1152.52 712.742H1146.23V736.936H1152.52V712.742Z" fill="white"/>
<path opacity="0.33" d="M1547.22 717.77H1542.44V731.376H1547.22V717.77Z" fill="white"/>
<path opacity="0.33" d="M1562.19 717.77H1557.41V731.376H1562.19V717.77Z" fill="white"/>
<path opacity="0.33" d="M1547.22 717.77H1542.44V731.376H1547.22V717.77Z" fill="white"/>
<path opacity="0.33" d="M1562.19 717.77H1557.41V731.376H1562.19V717.77Z" fill="white"/>
<path opacity="0.33" d="M1576.34 717.77H1571.56V731.376H1576.34V717.77Z" fill="white"/>
<path opacity="0.33" d="M1591.31 717.77H1586.53V731.376H1591.31V717.77Z" fill="white"/>
<path opacity="0.33" d="M1547.22 742.169H1542.44V755.775H1547.22V742.169Z" fill="white"/>
<path opacity="0.33" d="M1562.19 742.169H1557.41V755.775H1562.19V742.169Z" fill="white"/>
<path opacity="0.33" d="M1547.22 742.169H1542.44V755.775H1547.22V742.169Z" fill="white"/>
<path opacity="0.33" d="M1562.19 742.169H1557.41V755.775H1562.19V742.169Z" fill="white"/>
<path opacity="0.33" d="M1576.34 742.169H1571.56V755.775H1576.34V742.169Z" fill="white"/>
<path opacity="0.33" d="M1591.31 742.169H1586.53V755.775H1591.31V742.169Z" fill="white"/>
<path opacity="0.33" d="M1547.22 768.137H1542.44V781.743H1547.22V768.137Z" fill="white"/>
<path opacity="0.33" d="M1562.19 768.137H1557.41V781.743H1562.19V768.137Z" fill="white"/>
<path opacity="0.33" d="M1547.22 768.137H1542.44V781.743H1547.22V768.137Z" fill="white"/>
<path opacity="0.33" d="M1562.19 768.137H1557.41V781.743H1562.19V768.137Z" fill="white"/>
<path opacity="0.33" d="M1576.34 768.137H1571.56V781.743H1576.34V768.137Z" fill="white"/>
<path opacity="0.33" d="M1591.31 768.137H1586.53V781.743H1591.31V768.137Z" fill="white"/>
<path opacity="0.33" d="M1607.67 717.77H1602.9V731.376H1607.67V717.77Z" fill="white"/>
<path opacity="0.33" d="M1607.67 742.169H1602.9V755.775H1607.67V742.169Z" fill="white"/>
<path opacity="0.33" d="M1622.65 717.77H1617.87V731.376H1622.65V717.77Z" fill="white"/>
<path opacity="0.33" d="M1174.54 677.394H1169.41V698.606H1174.54V677.394Z" fill="white"/>
<path opacity="0.33" d="M1200.07 677.394H1194.94V698.606H1200.07V677.394Z" fill="white"/>
<path opacity="0.33" d="M1225.6 677.394H1220.47V698.606H1225.6V677.394Z" fill="white"/>
<path opacity="0.33" d="M1251.14 677.394H1246V698.606H1251.14V677.394Z" fill="white"/>
<path opacity="0.33" d="M1174.54 721.053H1169.41V742.265H1174.54V721.053Z" fill="white"/>
<path opacity="0.33" d="M1200.07 721.053H1194.94V742.265H1200.07V721.053Z" fill="white"/>
<path opacity="0.33" d="M1225.6 721.053H1220.47V742.265H1225.6V721.053Z" fill="white"/>
<path opacity="0.33" d="M1251.14 721.053H1246V742.265H1251.14V721.053Z" fill="white"/>
<path opacity="0.33" d="M1174.54 765.797H1169.41V787.009H1174.54V765.797Z" fill="white"/>
<path opacity="0.33" d="M1200.07 765.797H1194.94V787.009H1200.07V765.797Z" fill="white"/>
<path opacity="0.33" d="M1225.6 765.797H1220.47V787.009H1225.6V765.797Z" fill="white"/>
<path opacity="0.33" d="M1251.14 765.797H1246V787.009H1251.14V765.797Z" fill="white"/>
<path opacity="0.33" d="M1174.54 810.543H1169.41V831.756H1174.54V810.543Z" fill="white"/>
<path opacity="0.33" d="M1200.07 810.543H1194.94V831.756H1200.07V810.543Z" fill="white"/>
<path opacity="0.33" d="M1225.6 810.543H1220.47V831.756H1225.6V810.543Z" fill="white"/>
<path opacity="0.33" d="M1251.14 810.543H1246V831.756H1251.14V810.543Z" fill="white"/>
<path opacity="0.33" d="M1174.54 851.186H1169.41V872.399H1174.54V851.186Z" fill="white"/>
<path opacity="0.33" d="M1200.07 851.186H1194.94V872.399H1200.07V851.186Z" fill="white"/>
<path opacity="0.33" d="M1225.6 851.186H1220.47V872.399H1225.6V851.186Z" fill="white"/>
<path opacity="0.33" d="M1174.54 896.519H1169.41V917.732H1174.54V896.519Z" fill="white"/>
<path opacity="0.33" d="M1200.07 896.519H1194.94V917.732H1200.07V896.519Z" fill="white"/>
<path opacity="0.33" d="M1225.6 896.519H1220.47V917.732H1225.6V896.519Z" fill="white"/>
<path opacity="0.33" d="M1251.14 851.186H1246V872.399H1251.14V851.186Z" fill="white"/>
<path opacity="0.33" d="M1755.04 789.54H1749.8V801.715H1755.04V789.54Z" fill="white"/>
<path opacity="0.33" d="M1755.04 809.196H1749.8V821.372H1755.04V809.196Z" fill="white"/>
<path opacity="0.33" d="M1768.5 789.54H1763.25V801.715H1768.5V789.54Z" fill="white"/>
</g>
</g>
<defs>
<filter id="filter0_f_873_8890" x="152" y="285" width="1616" height="1616" filterUnits="userSpaceOnUse" color-interpolation-filters="sRGB">
<feFlood flood-opacity="0" result="BackgroundImageFix"/>
<feBlend mode="normal" in="SourceGraphic" in2="BackgroundImageFix" result="shape"/>
<feGaussianBlur stdDeviation="200" result="effect1_foregroundBlur_873_8890"/>
</filter>
<linearGradient id="paint0_linear_873_8890" x1="960" y1="685" x2="960" y2="1501" gradientUnits="userSpaceOnUse">
<stop stop-color="#0E7BF8"/>
<stop offset="0.863541" stop-color="#0E7BF8" stop-opacity="0"/>
</linearGradient>
<clipPath id="clip0_873_8890">
<rect width="1920" height="980" fill="white"/>
</clipPath>
</defs>
</svg>
