<svg width="48" height="48" viewBox="0 0 48 48" fill="none" xmlns="http://www.w3.org/2000/svg">
<path d="M0 8C0 3.58172 3.58172 0 8 0H40C44.4183 0 48 3.58172 48 8V40C48 44.4183 44.4183 48 40 48H8C3.58172 48 0 44.4183 0 40V8Z" fill="#27AE60"/>
<path d="M16.0001 17.5466C16.0801 17.5333 16.1734 17.5333 16.2534 17.5466C18.0934 17.48 19.5601 15.9733 19.5601 14.1066C19.5601 12.2 18.0267 10.6666 16.1201 10.6666C14.2134 10.6666 12.6801 12.2133 12.6801 14.1066C12.6934 15.9733 14.1601 17.48 16.0001 17.5466Z" stroke="white" stroke-width="1.5" stroke-linecap="round" stroke-linejoin="round"/>
<path d="M17.3736 27.2533C15.5469 27.5599 13.5336 27.2399 12.1202 26.2933C10.2402 25.0399 10.2402 22.9866 12.1202 21.7333C13.5469 20.7866 15.5869 20.4666 17.4136 20.7866" stroke="white" stroke-width="1.5" stroke-linecap="round" stroke-linejoin="round"/>
<path d="M32.0399 17.5466C31.9599 17.5333 31.8665 17.5333 31.7865 17.5466C29.9465 17.48 28.4799 15.9733 28.4799 14.1066C28.4799 12.2 30.0132 10.6666 31.9199 10.6666C33.8265 10.6666 35.3599 12.2133 35.3599 14.1066C35.3465 15.9733 33.8799 17.48 32.0399 17.5466Z" stroke="white" stroke-width="1.5" stroke-linecap="round" stroke-linejoin="round"/>
<path d="M30.6667 27.2533C32.4934 27.5599 34.5067 27.2399 35.9201 26.2933C37.8001 25.0399 37.8001 22.9866 35.9201 21.7333C34.4934 20.7866 32.4534 20.4666 30.6267 20.7866" stroke="white" stroke-width="1.5" stroke-linecap="round" stroke-linejoin="round"/>
<path d="M24.0001 27.5067C24.0801 27.4934 24.1734 27.4934 24.2534 27.5067C26.0934 27.44 27.5601 25.9334 27.5601 24.0667C27.5601 22.16 26.0267 20.6267 24.1201 20.6267C22.2134 20.6267 20.6801 22.1734 20.6801 24.0667C20.6934 25.9334 22.1601 27.4534 24.0001 27.5067Z" stroke="white" stroke-width="1.5" stroke-linecap="round" stroke-linejoin="round"/>
<path d="M27.88 31.7067C29.76 32.9601 29.76 35.0134 27.88 36.2667C25.7467 37.6934 22.2534 37.6934 20.12 36.2667C18.24 35.0134 18.24 32.9601 20.12 31.7067C22.24 30.2934 25.7467 30.2934 27.88 31.7067Z" stroke="white" stroke-width="1.5" stroke-linecap="round" stroke-linejoin="round"/>
</svg>
