<svg width="19" height="19" viewBox="0 0 19 19" fill="none" xmlns="http://www.w3.org/2000/svg">
<path d="M14.1379 2.40605C14.3554 2.18862 14.6135 2.01613 14.8976 1.89846C15.1817 1.78078 15.4862 1.72021 15.7937 1.72021C16.1012 1.72021 16.4057 1.78078 16.6898 1.89846C16.9739 2.01613 17.232 2.18862 17.4494 2.40605C17.6669 2.62349 17.8394 2.88163 17.957 3.16572C18.0747 3.44982 18.1353 3.75431 18.1353 4.06181C18.1353 4.36931 18.0747 4.67381 17.957 4.9579C17.8394 5.242 17.6669 5.50013 17.4494 5.71757L6.27306 16.8939L1.71973 18.1358L2.96155 13.5824L14.1379 2.40605Z" stroke="white" stroke-width="1.5" stroke-miterlimit="10" stroke-linecap="round" stroke-linejoin="round"/>
</svg>
