<svg width="24" height="24" viewBox="0 0 24 24" fill="none" xmlns="http://www.w3.org/2000/svg">
<path opacity="0.4" d="M21.6599 10.44L20.6799 14.62C19.8399 18.23 18.1799 19.69 15.0599 19.39C14.5599 19.35 14.0199 19.26 13.4399 19.12L11.7599 18.72C7.58994 17.73 6.29994 15.67 7.27994 11.49L8.25994 7.30001C8.45994 6.45001 8.69994 5.71001 8.99994 5.10001C10.1699 2.68001 12.1599 2.03001 15.4999 2.82001L17.1699 3.21001C21.3599 4.19001 22.6399 6.26001 21.6599 10.44Z" fill="white"/>
<path d="M15.0601 19.39C14.4401 19.81 13.6601 20.16 12.7101 20.47L11.1301 20.99C7.1601 22.27 5.0701 21.2 3.7801 17.23L2.5001 13.28C1.2201 9.30998 2.2801 7.20998 6.2501 5.92998L7.8301 5.40998C8.2401 5.27998 8.6301 5.16998 9.0001 5.09998C8.7001 5.70998 8.4601 6.44998 8.2601 7.29998L7.2801 11.49C6.3001 15.67 7.5901 17.73 11.7601 18.72L13.4401 19.12C14.0201 19.26 14.5601 19.35 15.0601 19.39Z" fill="white"/>
<path d="M17.4901 10.51C17.4301 10.51 17.3701 10.5 17.3001 10.49L12.4501 9.26002C12.0501 9.16002 11.8101 8.75002 11.9101 8.35002C12.0101 7.95002 12.4201 7.71002 12.8201 7.81002L17.6701 9.04002C18.0701 9.14002 18.3101 9.55002 18.2101 9.95002C18.1301 10.28 17.8201 10.51 17.4901 10.51Z" fill="white"/>
<path d="M14.5599 13.89C14.4999 13.89 14.4399 13.88 14.3699 13.87L11.4599 13.13C11.0599 13.03 10.8199 12.62 10.9199 12.22C11.0199 11.82 11.4299 11.58 11.8299 11.68L14.7399 12.42C15.1399 12.52 15.3799 12.93 15.2799 13.33C15.1999 13.67 14.8999 13.89 14.5599 13.89Z" fill="white"/>
</svg>
