<svg width="48" height="48" viewBox="0 0 48 48" fill="none" xmlns="http://www.w3.org/2000/svg">
<path d="M0 8C0 3.58172 3.58172 0 8 0H40C44.4183 0 48 3.58172 48 8V40C48 44.4183 44.4183 48 40 48H8C3.58172 48 0 44.4183 0 40V8Z" fill="#F39C12"/>
<path d="M16.0001 17.5467C16.0801 17.5334 16.1734 17.5334 16.2534 17.5467C18.0934 17.48 19.5601 15.9734 19.5601 14.1067C19.5601 12.2 18.0267 10.6667 16.1201 10.6667C14.2134 10.6667 12.6801 12.2134 12.6801 14.1067C12.6934 15.9734 14.1601 17.48 16.0001 17.5467Z" stroke="white" stroke-width="1.5" stroke-linecap="round" stroke-linejoin="round"/>
<path d="M17.3736 27.2534C15.5469 27.5601 13.5336 27.2401 12.1202 26.2934C10.2402 25.0401 10.2402 22.9867 12.1202 21.7334C13.5469 20.7867 15.5869 20.4667 17.4136 20.7867" stroke="white" stroke-width="1.5" stroke-linecap="round" stroke-linejoin="round"/>
<path d="M32.0399 17.5467C31.9599 17.5334 31.8665 17.5334 31.7865 17.5467C29.9465 17.48 28.4799 15.9734 28.4799 14.1067C28.4799 12.2 30.0132 10.6667 31.9199 10.6667C33.8265 10.6667 35.3599 12.2134 35.3599 14.1067C35.3465 15.9734 33.8799 17.48 32.0399 17.5467Z" stroke="white" stroke-width="1.5" stroke-linecap="round" stroke-linejoin="round"/>
<path d="M30.6667 27.2534C32.4934 27.5601 34.5067 27.2401 35.9201 26.2934C37.8001 25.0401 37.8001 22.9867 35.9201 21.7334C34.4934 20.7867 32.4534 20.4667 30.6267 20.7867" stroke="white" stroke-width="1.5" stroke-linecap="round" stroke-linejoin="round"/>
<path d="M24.0001 27.5067C24.0801 27.4933 24.1734 27.4933 24.2534 27.5067C26.0934 27.44 27.5601 25.9333 27.5601 24.0667C27.5601 22.16 26.0267 20.6266 24.1201 20.6266C22.2134 20.6266 20.6801 22.1733 20.6801 24.0667C20.6934 25.9333 22.1601 27.4533 24.0001 27.5067Z" stroke="white" stroke-width="1.5" stroke-linecap="round" stroke-linejoin="round"/>
<path d="M27.88 31.7067C29.76 32.96 29.76 35.0133 27.88 36.2667C25.7467 37.6933 22.2534 37.6933 20.12 36.2667C18.24 35.0133 18.24 32.96 20.12 31.7067C22.24 30.2933 25.7467 30.2933 27.88 31.7067Z" stroke="white" stroke-width="1.5" stroke-linecap="round" stroke-linejoin="round"/>
</svg>
