<svg width="32" height="32" viewBox="0 0 32 32" fill="none" xmlns="http://www.w3.org/2000/svg">
<rect width="32" height="32" rx="16" fill="#FFEFEF"/>
<path d="M23.5 10.9836C20.725 10.7086 17.9333 10.5669 15.15 10.5669C13.5 10.5669 11.85 10.6502 10.2 10.8169L8.5 10.9836" stroke="#FB4848" stroke-width="1.5" stroke-linecap="round" stroke-linejoin="round"/>
<path d="M13.0835 10.1415L13.2668 9.04984C13.4002 8.25817 13.5002 7.6665 14.9085 7.6665H17.0918C18.5002 7.6665 18.6085 8.2915 18.7335 9.05817L18.9168 10.1415" stroke="#FB4848" stroke-width="1.5" stroke-linecap="round" stroke-linejoin="round"/>
<path d="M21.7082 13.6167L21.1665 22.0084C21.0748 23.3167 20.9998 24.3334 18.6748 24.3334H13.3248C10.9998 24.3334 10.9248 23.3167 10.8332 22.0084L10.2915 13.6167" stroke="#FB4848" stroke-width="1.5" stroke-linecap="round" stroke-linejoin="round"/>
<path d="M14.6084 19.75H17.3834" stroke="#FB4848" stroke-width="1.5" stroke-linecap="round" stroke-linejoin="round"/>
<path d="M13.9165 16.4165H18.0832" stroke="#FB4848" stroke-width="1.5" stroke-linecap="round" stroke-linejoin="round"/>
</svg>
