<svg width="24" height="24" viewBox="0 0 24 24" fill="none" xmlns="http://www.w3.org/2000/svg">
<path d="M15 12C15 13.6592 13.6592 15 12 15C10.3408 15 9 13.6592 9 12C9 10.3408 10.3408 9 12 9C13.6592 9 15 10.3408 15 12Z" stroke="#2A85F1" stroke-width="1.5" stroke-linecap="round" stroke-linejoin="round"/>
<path d="M12 18C15.6076 18 18.9699 16.4918 21.3102 13.8816C22.2299 12.8592 22.2299 11.1408 21.3102 10.1184C18.9699 7.50816 15.6076 6 12 6C8.39244 6 5.03015 7.50816 2.68983 10.1184C1.77006 11.1408 1.77006 12.8592 2.68983 13.8816C5.03015 16.4918 8.39244 18 12 18Z" stroke="#2A85F1" stroke-width="1.5" stroke-linecap="round" stroke-linejoin="round"/>
</svg>
